<?xml version="1.0" encoding="UTF-8" standalone="no"?>
<!-- Created with Inkscape (http://www.inkscape.org/) -->

<svg
   xmlns:dc="http://purl.org/dc/elements/1.1/"
   xmlns:cc="http://creativecommons.org/ns#"
   xmlns:rdf="http://www.w3.org/1999/02/22-rdf-syntax-ns#"
   xmlns:svg="http://www.w3.org/2000/svg"
   xmlns="http://www.w3.org/2000/svg"
   xmlns:sodipodi="http://sodipodi.sourceforge.net/DTD/sodipodi-0.dtd"
   xmlns:inkscape="http://www.inkscape.org/namespaces/inkscape"
   width="222"
   height="222"
   id="svg5733"
   version="1.1"
   inkscape:version="0.48.4 r9939"
   sodipodi:docname="New document 3">
  <defs
     id="defs5735" />
  <sodipodi:namedview
     id="base"
     pagecolor="#ffffff"
     bordercolor="#666666"
     borderopacity="1.0"
     inkscape:pageopacity="0.0"
     inkscape:pageshadow="2"
     inkscape:zoom="1.4"
     inkscape:cx="180.37937"
     inkscape:cy="-31.733479"
     inkscape:document-units="px"
     inkscape:current-layer="layer1"
     showgrid="false"
     fit-margin-top="0"
     fit-margin-left="0"
     fit-margin-right="0"
     fit-margin-bottom="0"
     inkscape:window-width="1680"
     inkscape:window-height="1023"
     inkscape:window-x="1920"
     inkscape:window-y="0"
     inkscape:window-maximized="1" />
  <metadata
     id="metadata5738">
    <rdf:RDF>
      <cc:Work
         rdf:about="">
        <dc:format>image/svg+xml</dc:format>
        <dc:type
           rdf:resource="http://purl.org/dc/dcmitype/StillImage" />
        <dc:title></dc:title>
      </cc:Work>
    </rdf:RDF>
  </metadata>
  <g
     inkscape:label="Layer 1"
     inkscape:groupmode="layer"
     id="layer1"
     transform="translate(-313.25,-407.9375)">
    <path
       d="m 325.03958,548.02993 c 0,10.50355 8.5414,19.01437 19.07021,19.01437 l 95.0452,0 67.1901,53.7297 -18.66568,-53.7297 18.79676,0 c 10.52868,0 19.06497,-8.51082 19.06497,-19.01437 l 0,-115.1665 c 0,-10.50591 -8.53629,-19.01674 -19.06497,-19.01674 l -162.36638,0 c -10.52881,0 -19.07021,8.51083 -19.07021,19.01674 l 0,115.1665"
       style="fill:#f0541e;fill-opacity:1;fill-rule:nonzero;stroke:none"
       id="path34"
       inkscape:connector-curvature="0" />
    <path
       d="m 325.03958,548.02993 c 0,10.50355 8.5414,19.01437 19.07021,19.01437 l 95.0452,0 67.1901,53.7297 -18.66568,-53.7297 18.79676,0 c 10.52868,0 19.06497,-8.51082 19.06497,-19.01437 l 0,-115.1665 c 0,-10.50591 -8.53629,-19.01674 -19.06497,-19.01674 l -162.36638,0 c -10.52881,0 -19.07021,8.51083 -19.07021,19.01674 l 0,115.1665 z"
       style="fill:#42d4b7;fill-opacity:1;stroke:#ffffff;stroke-width:7.57269573;stroke-linecap:butt;stroke-linejoin:miter;stroke-miterlimit:10;stroke-opacity:1;stroke-dasharray:none"
       id="path36"
       inkscape:connector-curvature="0" />
    <g
       id="g24711"
       transform="matrix(0.10311072,0,0,-0.10286203,-310.31619,663.37688)">
      <g
         transform="matrix(-1,0,0,1,8785.3955,219.57598)"
         id="g3252">
        <path
           inkscape:connector-curvature="0"
           d="m 1424.0576,1451.807 c 26.0615,0 47.3668,21.1836 47.3668,47.3197 0,26.1087 -21.3053,47.2608 -47.3668,47.2608 l -115.8427,0 c -26.1518,0 -47.2608,-21.1521 -47.2608,-47.2608 0,-26.1361 21.109,-47.3197 47.2608,-47.3197 l 115.8427,0"
           style="fill:#231f20;fill-opacity:1;fill-rule:nonzero;stroke:none"
           id="path124-5" />
        <path
           inkscape:connector-curvature="0"
           d="m 1958.6432,1546.3875 c -26.1361,0 -47.3393,-21.1521 -47.3393,-47.2608 0,-26.1361 21.2032,-47.3197 47.3393,-47.3197 l 115.8427,0 c 26.1361,0 47.2923,21.1836 47.2923,47.3197 0,26.1087 -21.1562,47.2608 -47.2923,47.2608 l -115.8427,0"
           style="fill:#231f20;fill-opacity:1;fill-rule:nonzero;stroke:none"
           id="path126-0" />
        <path
           inkscape:connector-curvature="0"
           d="m 1691.4034,1719.1842 c 26.0929,0 47.2922,21.1522 47.2922,47.2138 l 0,115.8583 c 0,26.0928 -21.1993,47.2921 -47.2922,47.2921 -26.1361,0 -47.2923,-21.1993 -47.2923,-47.2921 l 0,-115.8583 c 0,-26.0616 21.1562,-47.2138 47.2923,-47.2138"
           style="fill:#231f20;fill-opacity:1;fill-rule:nonzero;stroke:none"
           id="path128-0" />
        <path
           inkscape:connector-curvature="0"
           d="m 1691.4034,1279.1516 c -26.1361,0 -47.2923,-21.1875 -47.2923,-47.2765 l 0,-115.9054 c 0,-26.1401 21.1562,-47.2178 47.2923,-47.2178 26.0929,0 47.2922,21.0777 47.2922,47.2178 l 0,115.9054 c 0,26.089 -21.1993,47.2765 -47.2922,47.2765"
           style="fill:#231f20;fill-opacity:1;fill-rule:nonzero;stroke:none"
           id="path130-5" />
      </g>
      <path
         id="path132-1"
         style="fill:#231f20;fill-opacity:1;fill-rule:nonzero;stroke:none"
         d="m 6644.0432,2101.8322 66.7884,66.8357 383.161,-383.1259 383.1885,383.1571 66.808,-66.8669 -383.161,-383.1296 383.161,-383.157 -66.808,-66.8394 -383.1414,383.161 -383.2081,-383.2199 -66.7884,66.8669 383.1885,383.1884 -383.1885,383.1296"
         inkscape:connector-curvature="0" />
    </g>
  </g>
</svg>
