<?xml version="1.0" encoding="UTF-8" standalone="no"?>
<!-- Created with Inkscape (http://www.inkscape.org/) -->

<svg
   xmlns:dc="http://purl.org/dc/elements/1.1/"
   xmlns:cc="http://creativecommons.org/ns#"
   xmlns:rdf="http://www.w3.org/1999/02/22-rdf-syntax-ns#"
   xmlns:svg="http://www.w3.org/2000/svg"
   xmlns="http://www.w3.org/2000/svg"
   version="1.1"
   width="120.475"
   height="57.025002"
   id="svg2"
   xml:space="preserve"><metadata
     id="metadata8"><rdf:RDF><cc:Work
         rdf:about=""><dc:format>image/svg+xml</dc:format><dc:type
           rdf:resource="http://purl.org/dc/dcmitype/StillImage" /><dc:title></dc:title></cc:Work></rdf:RDF></metadata><defs
     id="defs6" /><g
     transform="matrix(1.25,0,0,-1.25,0,57.025)"
     id="g10"><g
       transform="scale(0.1,0.1)"
       id="g12"><path
         d="m 88.8281,267.734 c -0.7031,39.364 -63.6992,29.168 -64.6367,54.414 -0.4609,11.836 8.8047,15.071 19.4609,15.536 10.4219,0.461 19.9141,-2.782 19.9141,-2.782 l 3.6992,-18.066 15.0703,0 0.6993,31.269 c 0,0 -21.3164,7.188 -39.6289,6.954 C 18.8672,354.59 0.566406,342.762 1.00781,318.445 1.71875,276.746 64.7188,288.801 65.6563,263.309 66.1211,249.434 54.0742,245.469 40.1641,245.02 29.043,244.551 19.793,247.098 19.793,247.098 l -2.5586,19.922 -16.22659,0 L 1.25,232.734 c 0,0 18.9922,-6.015 38.6914,-5.097 26.6406,0.937 49.3359,13.449 48.8867,40.097"
         id="path14"
         style="fill:#231f20;fill-opacity:1;fill-rule:nonzero;stroke:none" /><path
         d="m 165.508,242.703 -15.059,5.793 0,40.535 20.156,0 33.125,-59.07 31.282,0 0,12.742 -17.375,5.793 -0.242,0 -29.875,52.117 23.859,35.45 0.23,0 16.45,2.785 0,13.886 -50.969,-1.152 0,-12.734 10.43,-3.262 -17.383,-29.18 -19.688,0 0,101.914 -42.844,-1.152 0,-12.734 19.68,-4.629 0,-141.309 -19.68,-5.793 0,-12.742 57.903,0 0,12.742"
         id="path16"
         style="fill:#231f20;fill-opacity:1;fill-rule:nonzero;stroke:none" /><path
         d="m 384.414,243.867 -19.68,4.629 0,104.238 -42.847,-1.152 0,-12.734 19.695,-4.637 0,-68.574 c 0,0 -13.914,-18.324 -33.602,-18.324 -15.042,0 -20.839,7.902 -20.839,24.101 l 0,81.32 -42.856,-1.152 0,-12.734 19.692,-4.637 0,-65.102 c 0,-25.468 11.589,-41.472 37.039,-41.472 19.023,0 37.312,13.672 42.871,18.523 l 2.304,-16.199 38.223,1.152 0,12.754"
         id="path18"
         style="fill:#231f20;fill-opacity:1;fill-rule:nonzero;stroke:none" /><path
         d="m 434.27,321.453 c 0,0 9.246,15.07 30.078,15.07 20.855,0 28.972,-18.535 28.972,-44.011 0,-25.492 -9.043,-46.352 -35.91,-46.352 -17.137,0 -23.14,2.336 -23.14,2.336 l 0,72.957 z m -23.184,-88.008 c 0,0 17.371,-5.808 42.859,-5.808 41.692,0 63.692,27.801 63.692,67.176 0,35.917 -15.039,60.246 -48.633,60.246 -15.059,0 -27.129,-7.422 -34.734,-13.438 l 0,66.699 -41.704,-1.152 0,-12.734 18.52,-4.629 0,-156.36"
         id="path20"
         style="fill:#231f20;fill-opacity:1;fill-rule:nonzero;stroke:none" /><path
         d="m 612.645,264.707 c 0,0 -13.895,-18.547 -31.278,-18.547 -10.449,0 -16.914,6.965 -16.914,17.387 0,13.902 8.809,19.695 31.965,19.695 l 16.227,0 0,-18.535 z m -18.543,33.582 c -32.43,0 -53.274,-9.258 -53.274,-35.898 0,-22 12.735,-34.754 34.746,-34.754 16.211,0 30.117,10.672 37.989,18.523 l 4.855,-16.199 35.918,1.152 0,12.754 -18.543,4.629 0,70.645 c 0,26.64 -15.969,35.918 -42.832,35.918 -19.699,0 -45.188,-9.278 -45.188,-9.278 l 1.172,-28.945 15.059,0 3.23,17.375 c 0,0 9.504,3.473 23.403,3.473 13.906,0 22.008,-6.954 22.008,-20.848 l 0,-18.547 -18.543,0"
         id="path22"
         style="fill:#231f20;fill-opacity:1;fill-rule:nonzero;stroke:none" /><path
         d="m 36.1016,127.566 c -0.2227,16.504 -26.19926,12.27 -26.4141,23.418 -0.08594,3.664 3.1445,7.043 9.7461,7.121 4.0234,0.071 7.793,-1.328 7.793,-1.328 l 2.4922,-7.863 4.7539,0 0.3789,12.5 c 0,0 -8.5235,3.066 -15.4961,2.922 C 10.1836,164.199 1.82422,160 1.96094,149.746 2.25781,131.98 28.2539,136.895 28.457,125.594 c 0.0977,-5.203 -5.8672,-7.781 -11.2226,-7.852 -4.7735,-0.137 -8.06643,1.836 -8.06643,1.836 l -1.48047,7.695 -5.86328,0 0,-12.839 c 0,0 7.40625,-3.079 15.12108,-3 10.2813,0.207 19.375,5.117 19.1563,16.132"
         id="path24"
         style="fill:#231f20;fill-opacity:1;fill-rule:nonzero;stroke:none" /><path
         d="m 50.1172,122.137 c 0,-8.211 4.0234,-10.645 8.4258,-10.645 3.6836,0 6.9843,1.262 10.2851,3.676 l -1.9922,3.883 c -1.9062,-1.024 -3.9453,-1.832 -5.7148,-1.832 -2.0586,0 -3.668,1.109 -3.668,4.469 l 0,23.574 10.625,0 0,5.5 -10.625,0 0,10.722 -7.3359,-1.484 0,-9.238 -7.3516,-0.723 0,-4.777 7.3516,0 0,-23.125"
         id="path26"
         style="fill:#231f20;fill-opacity:1;fill-rule:nonzero;stroke:none" /><path
         d="m 110.652,151.133 -13.5817,-0.371 0,-4.051 6.2427,-1.449 0,-21.739 c 0,0 -4.4067,-5.781 -10.6489,-5.781 -4.7539,0 -6.5899,2.5 -6.5899,7.629 l 0,25.762 -13.5937,-0.371 0,-4.051 6.2383,-1.449 0,-20.633 c 0,-8.078 3.6835,-13.137 11.75,-13.137 6.0039,0 11.8162,4.336 13.5742,5.871 l 0.742,-5.129 12.102,0.356 0,4.051 -6.235,1.453 0,33.039"
         id="path28"
         style="fill:#231f20;fill-opacity:1;fill-rule:nonzero;stroke:none" /><path
         d="m 130.449,131.316 c 0,8.071 2.5,14.668 11.004,14.668 5.149,0 7.719,-1.472 7.719,-1.472 l 0,-21.629 c 0,0 -3.313,-5.52 -9.543,-5.52 -6.602,0 -9.18,5.879 -9.18,13.953 z m 19.231,-14.898 0.586,-4.184 12.468,0.356 0,4.051 -6.23,1.453 0,50.644 -13.574,-0.371 0,-4.031 6.242,-1.453 0,-12.192 c -1.899,0.649 -4.25,1.164 -6.965,1.164 -13.223,0 -19.465,-8.8 -19.465,-21.269 0,-11.387 4.778,-19.094 15.422,-19.094 5.566,0 9.395,2.793 11.516,4.926"
         id="path30"
         style="fill:#231f20;fill-opacity:1;fill-rule:nonzero;stroke:none" /><path
         d="m 176.23,136.086 c 0.45,5.516 3.758,10.047 9.622,10.047 5.878,0 8.003,-4.531 8.003,-10.047 l -17.625,0 z m 25.391,-1.477 c 0,11.028 -4.758,17.246 -15.391,17.246 -10.644,0 -17.976,-8.8 -17.976,-20.539 0,-12.117 5.867,-19.824 17.598,-19.824 8.804,0 15.632,6.113 15.632,6.113 l -2.578,3.801 c 0,0 -4.968,-4.043 -12.324,-4.043 -6.301,0 -10.637,5.157 -10.637,13.223 l 25.325,0.144 c 0,0 0.351,2.063 0.351,3.879"
         id="path32"
         style="fill:#231f20;fill-opacity:1;fill-rule:nonzero;stroke:none" /><path
         d="m 220.625,145.918 -0.652,5.215 -12.114,-0.371 0,-4.051 6.262,-1.449 0,-27.168 -6.262,-1.832 0,-4.028 18.352,0 0,4.028 -4.766,1.832 0,21.64 c 0,0 4.407,5.903 10.633,5.903 4.777,0 6.606,-2.582 6.606,-7.715 l 0,-19.828 -4.778,-1.832 0,-4.028 17.617,0 0,4.028 -5.5,1.832 0,20.547 c 0,8.07 -3.66,13.214 -11.738,13.214 -6.094,0 -11.89,-4.386 -13.66,-5.937"
         id="path34"
         style="fill:#231f20;fill-opacity:1;fill-rule:nonzero;stroke:none" /><path
         d="m 281.992,115.168 -2.004,3.883 c -1.902,-1.024 -3.953,-1.832 -5.73,-1.832 -2.039,0 -3.66,1.109 -3.66,4.469 l 0,23.574 10.64,0 0,5.5 -10.64,0 0,10.722 -7.336,-1.484 0,-9.238 -7.324,-0.723 0,-4.777 7.324,0 0,-23.125 c 0,-8.211 4.043,-10.645 8.457,-10.645 3.672,0 6.953,1.262 10.273,3.676"
         id="path36"
         style="fill:#231f20;fill-opacity:1;fill-rule:nonzero;stroke:none" /><path
         d="m 287.117,116.262 0,-4.028 19.074,0 0,4.028 -5.515,1.832 0,33.039 -13.559,-0.371 0,-4.051 6.235,-1.449 0,-27.168 -6.235,-1.832"
         id="path38"
         style="fill:#231f20;fill-opacity:1;fill-rule:nonzero;stroke:none" /><path
         d="m 301.426,163.242 c 0,3.66 -1.836,5.125 -4.766,5.125 -2.59,0 -4.785,-1.836 -4.785,-5.125 0,-3.32 1.824,-5.137 4.785,-5.137 2.188,0 4.766,1.817 4.766,5.137"
         id="path40"
         style="fill:#231f20;fill-opacity:1;fill-rule:nonzero;stroke:none" /><path
         d="m 325.254,117.004 c -3.524,-0.149 -6.465,0.664 -6.465,0.664 l -0.801,6.297 -5.136,0 0.078,-10.84 c 0,0 6.023,-1.914 12.273,-1.633 8.41,0.293 15.625,4.27 15.461,12.696 -0.215,12.484 -20.168,9.257 -20.469,17.238 -0.136,3.758 2.801,4.785 6.16,4.941 3.293,0.145 6.321,-0.898 6.321,-0.898 l 1.172,-5.735 4.773,0 0.219,9.903 c 0,0 -6.75,2.304 -12.563,2.218 -7.769,-0.144 -13.574,-3.886 -13.425,-11.601 0.214,-13.176 20.183,-9.375 20.468,-17.453 0.157,-4.403 -3.672,-5.664 -8.066,-5.797"
         id="path42"
         style="fill:#231f20;fill-opacity:1;fill-rule:nonzero;stroke:none" /><path
         d="m 380.742,117.363 -2.59,4.414 c 0,0 -4.39,-4.414 -11.367,-4.414 -6.972,0 -11.363,5.157 -11.363,15.059 0,9.18 4.019,13.562 11.004,13.562 3.664,0 6.601,-0.722 6.601,-0.722 l 1.106,-6.25 4.762,0 0.351,9.902 c 0,0 -5.867,2.941 -12.461,2.941 -11.746,0 -19.082,-8.437 -19.082,-20.183 0,-12.473 6.25,-20.18 18.344,-20.18 8.086,0 14.695,5.871 14.695,5.871"
         id="path44"
         style="fill:#231f20;fill-opacity:1;fill-rule:nonzero;stroke:none" /><path
         d="m 403.098,116.262 -4.746,1.832 0,21.64 c 0,0 4.628,5.903 10.847,5.903 4.754,0 6.375,-2.582 6.375,-7.715 l 0,-19.895 -4.746,-1.765 0,-4.028 17.59,0 0,4.028 -5.488,1.832 0,20.547 c 0,8.07 -3.684,13.214 -11.77,13.214 -5.398,0 -10.555,-3.359 -12.808,-5.273 l 0,22.156 -13.594,-0.371 0,-4.031 6.258,-1.453 0,-44.789 -6.258,-1.832 0,-4.028 18.34,0 0,4.028"
         id="path46"
         style="fill:#231f20;fill-opacity:1;fill-rule:nonzero;stroke:none" /><path
         d="m 442.273,136.086 c 0.469,5.516 3.75,10.047 9.629,10.047 5.864,0 8,-4.531 8,-10.047 l -17.629,0 z m 25.415,-1.477 c 0,11.028 -4.778,17.246 -15.415,17.246 -10.632,0 -17.988,-8.8 -17.988,-20.539 0,-12.117 5.891,-19.824 17.617,-19.824 8.801,0 15.637,6.113 15.637,6.113 l -2.566,3.801 c 0,0 -4.993,-4.043 -12.336,-4.043 -6.297,0 -10.657,5.157 -10.657,13.223 l 25.325,0.144 c 0,0 0.383,2.063 0.383,3.879"
         id="path48"
         style="fill:#231f20;fill-opacity:1;fill-rule:nonzero;stroke:none" /><path
         d="m 505.48,141.602 0,16.132 6.954,1.465 0,4.403 -20.903,-0.36 0,-4.043 6.242,-1.465 0,-39.64 -6.242,-1.453 0,-4.407 20.903,0 0,4.407 -6.954,1.453 0,17.621 7.188,0 12.625,-17.621 -6.25,-1.453 0,-4.407 20.918,0 0,4.407 -6.231,1.453 -15.136,21.078 11.152,18.562 7.274,1.465 0,4.403 -12.098,-0.36 -12.688,-21.64 -6.754,0"
         id="path50"
         style="fill:#231f20;fill-opacity:1;fill-rule:nonzero;stroke:none" /><path
         d="m 562.344,117.363 c -7.356,0 -10.266,5.52 -10.266,14.309 0,9.539 3.293,14.312 10.617,14.312 7.332,0 9.922,-5.847 9.922,-13.941 0,-9.523 -2.937,-14.68 -10.273,-14.68 z m 17.961,15.059 c 0,11.726 -6.223,19.433 -17.231,19.433 -10.996,0 -18.711,-8.066 -18.711,-20.539 0,-13.222 6.594,-19.824 17.602,-19.824 10.996,0 18.34,8.449 18.34,20.93"
         id="path52"
         style="fill:#231f20;fill-opacity:1;fill-rule:nonzero;stroke:none" /><path
         d="m 550.598,163.602 c 0,-2.793 1.543,-4.403 4.043,-4.403 2.195,0 4.043,1.61 4.043,4.403 0,2.793 -1.567,4.414 -4.043,4.414 -2.219,0 -4.043,-1.621 -4.043,-4.414"
         id="path54"
         style="fill:#231f20;fill-opacity:1;fill-rule:nonzero;stroke:none" /><path
         d="m 565.637,163.602 c 0,-2.793 1.543,-4.403 4.043,-4.403 2.195,0 4.019,1.61 4.019,4.403 0,2.793 -1.531,4.414 -4.019,4.414 -2.207,0 -4.043,-1.621 -4.043,-4.414"
         id="path56"
         style="fill:#231f20;fill-opacity:1;fill-rule:nonzero;stroke:none" /><path
         d="m 617.363,150.762 c 0,0 -2.929,1.093 -6.593,1.093 -5,0 -9.254,-4.035 -11.082,-6.085 l -0.657,5.363 -12.117,-0.371 0,-4.051 6.238,-1.449 0,-27.168 -6.238,-1.832 0,-4.028 20.918,0 0,4.028 -7.336,1.832 0,21.797 c 1.613,2.121 5.141,5.746 10.649,5.746 l 1.089,-5.5 4.778,0 0.351,10.625"
         id="path58"
         style="fill:#231f20;fill-opacity:1;fill-rule:nonzero;stroke:none" /><path
         d="m 641.953,117.363 c -5.488,0 -7.723,1.485 -7.723,1.485 l 0,22.011 c 0,0 2.594,5.125 9.188,5.125 6.602,0 9.531,-5.847 9.531,-13.941 0,-8.078 -2.48,-14.68 -10.996,-14.68 z m 2.93,34.492 c -5.07,0 -8.953,-2.773 -11.153,-4.843 l -0.593,4.121 -12.485,-0.371 0,-4.051 6.25,-1.449 0,-44.403 -5.867,-1.4723 0,-4.0351 20.918,0 0,4.0351 -7.723,1.4723 0,11.668 c 2,-0.593 4.2,-1.035 6.637,-1.035 13.547,0 19.797,8.821 19.797,21.301 0,11.355 -5.137,19.062 -15.781,19.062"
         id="path60"
         style="fill:#231f20;fill-opacity:1;fill-rule:nonzero;stroke:none" /><path
         d="m 685.227,146.133 c 5.878,0 8.003,-4.531 8.003,-10.047 l -17.625,0 c 0.458,5.516 3.75,10.047 9.622,10.047 z m 13.086,-24.727 c 0,0 -5.012,-4.043 -12.356,-4.043 -6.309,0 -10.644,5.157 -10.644,13.223 l 25.324,0.144 c 0,0 0.371,2.063 0.371,3.879 0,11.028 -4.778,17.246 -15.403,17.246 -10.656,0 -17.988,-8.8 -17.988,-20.539 0,-12.117 5.867,-19.824 17.61,-19.824 8.796,0 15.632,6.113 15.632,6.113 l -2.546,3.801"
         id="path62"
         style="fill:#231f20;fill-opacity:1;fill-rule:nonzero;stroke:none" /><path
         d="m 720.82,139.891 c 1.614,2.121 5.137,5.746 10.645,5.746 l 1.086,-5.5 4.785,0 0.352,10.625 c 0,0 -2.922,1.093 -6.602,1.093 -4.992,0 -9.231,-4.035 -11.074,-6.085 l -0.664,5.363 -12.121,-0.371 0,-4.051 6.257,-1.449 0,-27.168 -6.257,-1.832 0,-4.028 20.925,0 0,4.028 -7.332,1.832 0,21.797"
         id="path64"
         style="fill:#231f20;fill-opacity:1;fill-rule:nonzero;stroke:none" /><path
         d="m 749.871,141.426 c -0.137,3.758 2.797,4.785 6.164,4.941 3.313,0.145 6.301,-0.898 6.301,-0.898 l 1.18,-5.735 4.785,0 0.195,9.903 c 0,0 -6.75,2.304 -12.519,2.218 -7.786,-0.144 -13.594,-3.886 -13.438,-11.601 0.195,-13.176 20.164,-9.375 20.469,-17.453 0.144,-4.403 -3.66,-5.664 -8.086,-5.797 -3.504,-0.149 -6.438,0.664 -6.438,0.664 l -0.808,6.297 -5.137,0 0.059,-10.84 c 0,0 6.047,-1.914 12.265,-1.633 8.438,0.293 15.633,4.27 15.481,12.696 -0.227,12.484 -20.188,9.257 -20.473,17.238"
         id="path66"
         style="fill:#231f20;fill-opacity:1;fill-rule:nonzero;stroke:none" /><path
         d="m 796.465,117.363 c -6.953,0 -11.387,5.157 -11.387,15.059 0,9.18 4.043,13.562 11.027,13.562 3.68,0 6.61,-0.722 6.61,-0.722 l 1.086,-6.25 4.785,0 0.352,9.902 c 0,0 -5.879,2.941 -12.473,2.941 -11.731,0 -19.07,-8.437 -19.07,-20.183 0,-12.473 6.238,-20.18 18.335,-20.18 8.071,0 14.668,5.871 14.668,5.871 l -2.554,4.414 c 0,0 -4.399,-4.414 -11.379,-4.414"
         id="path68"
         style="fill:#231f20;fill-opacity:1;fill-rule:nonzero;stroke:none" /><path
         d="m 852.605,138.641 c 0,8.07 -3.667,13.214 -11.746,13.214 -5.429,0 -10.566,-3.359 -12.839,-5.273 l 0,22.156 -13.594,-0.371 0,-4.031 6.258,-1.453 0,-44.789 -6.258,-1.832 0,-4.028 18.367,0 0,4.028 -4.773,1.832 0,21.64 c 0,0 4.636,5.903 10.867,5.903 4.765,0 6.379,-2.582 6.379,-7.715 l 0,-19.895 -4.778,-1.765 0,-4.028 17.625,0 0,4.028 -5.508,1.832 0,20.547"
         id="path70"
         style="fill:#231f20;fill-opacity:1;fill-rule:nonzero;stroke:none" /><path
         d="m 887.078,123.242 c 0,0 -4.402,-5.879 -9.89,-5.879 -3.301,0 -5.364,2.215 -5.364,5.52 0,4.39 2.778,6.211 10.149,6.211 l 5.105,0 0,-5.852 z m 7.356,17.235 c 0,8.437 -5.071,11.378 -13.575,11.378 -6.257,0 -14.328,-2.941 -14.328,-2.941 l 0.383,-9.18 4.766,0 1.035,5.528 c 0,0 3,1.105 7.402,1.105 4.395,0 6.961,-2.219 6.961,-6.633 l 0,-5.867 -5.879,0 c -10.269,0 -16.863,-2.922 -16.863,-11.347 0,-6.985 4.043,-11.028 11.016,-11.028 5.128,0 9.55,3.379 12.05,5.871 l 1.524,-5.129 11.367,0.356 0,4.051 -5.859,1.453 0,22.383"
         id="path72"
         style="fill:#231f20;fill-opacity:1;fill-rule:nonzero;stroke:none" /><path
         d="m 939.551,166.902 c 0,0 -4.024,2.563 -11.004,2.563 -8.813,0 -13.598,-5.5 -13.598,-14.289 l 0,-4.414 -6.59,-0.723 0,-4.777 6.59,0 0,-27.168 -6.211,-1.832 0,-4.028 20.688,0 0,4.028 -7.102,1.832 0,27.168 9.446,0 0.234,5.5 -9.68,0 0,5.871 c 0,4.39 1.453,7.332 6.563,7.332 2.597,0 4.433,-0.363 4.433,-0.363 l 1.094,-5.868 5.137,0 0,9.168"
         id="path74"
         style="fill:#231f20;fill-opacity:1;fill-rule:nonzero;stroke:none" /><path
         d="m 961.785,119.051 c -1.914,-1.024 -3.972,-1.832 -5.73,-1.832 -2.063,0 -3.672,1.109 -3.672,4.469 l 0,23.574 10.652,0 0,5.5 -10.652,0 0,10.722 -7.324,-1.484 0,-9.238 -7.332,-0.723 0,-4.777 7.332,0 0,-23.125 c 0,-8.211 4.043,-10.645 8.437,-10.645 3.672,0 6.973,1.262 10.281,3.676 l -1.992,3.883"
         id="path76"
         style="fill:#231f20;fill-opacity:1;fill-rule:nonzero;stroke:none" /><path
         d="m 26.4141,11.4258 c 0,0 -3.3086,-5.50783 -9.5508,-5.50783 -6.5977,0 -9.1758,5.85933 -9.1758,13.93363 0,8.0781 2.4961,14.6797 11.0156,14.6797 5.1446,0 7.711,-1.4766 7.711,-1.4766 l 0,-21.6289 z m 7.3242,45.832 -13.5742,-0.3633 0,-4.0351 6.25,-1.4649 0,-12.1757 c -1.9102,0.6523 -4.2657,1.1796 -6.9805,1.1796 C 6.23047,40.3984 0,31.5938 0,19.1016 0,7.74219 4.75781,0.0273438 15.3906,0.0273438 c 5.5938,0 9.4141,2.8046862 11.5313,4.9218762 l 0.5976,-4.187501 12.4688,0.390621 0,4.03125 -6.25,1.45704 0,50.61717"
         id="path78"
         style="fill:#231f20;fill-opacity:1;fill-rule:nonzero;stroke:none" /><path
         d="m 53.4766,24.6172 c 0.457,5.5 3.7695,10.0586 9.6172,10.0586 5.871,0 8.0078,-4.5586 8.0078,-10.0586 l -17.625,0 z m 25.4023,-1.4649 c 0,10.9961 -4.7773,17.2461 -15.4101,17.2461 -10.6563,0 -17.9922,-8.8046 -17.9922,-20.5468 0,-12.10941 5.8632,-19.8242562 17.6172,-19.8242562 8.8281,0 15.625,6.1054662 15.625,6.1054662 l -2.5586,3.8086 c 0,0 -4.9883,-4.02344 -12.3204,-4.02344 -6.3203,0 -10.6367,5.11723 -10.6367,13.18363 l 25.3242,0.1562 c 0,0 0.3516,2.0508 0.3516,3.8945"
         id="path80"
         style="fill:#231f20;fill-opacity:1;fill-rule:nonzero;stroke:none" /><path
         d="m 97.8828,34.3047 -0.664,5.3633 -12.1016,-0.3711 0,-4.0352 6.2226,-1.4609 0,-27.16017 -6.2226,-1.83594 0,-4.042971 20.8988,0 0,4.042971 -7.3441,1.83594 0,21.79687 c 1.6211,2.1289 5.1561,5.7109 10.6641,5.7109 l 1.086,-5.4882 4.773,0 0.364,10.6367 c 0,0 -2.954,1.1015 -6.606,1.1015 -4.988,0 -9.246,-4.0312 -11.0702,-6.0937"
         id="path82"
         style="fill:#231f20;fill-opacity:1;fill-rule:nonzero;stroke:none" /><path
         d="m 168.75,47.7539 6.992,-1.4844 0,-24.582 c 0,-11.375 -2.949,-15.41016 -12.097,-15.41016 -8.45,0 -12.129,3.30079 -12.129,14.30856 l 0,25.6836 6.968,1.4844 0,4.375 -20.906,-0.3711 0,-4.0039 6.231,-1.4844 0,-25.6836 c 0,-13.59371 5.136,-20.5585562 19.445,-20.5585562 15.406,0 20.184,8.0859362 20.184,21.6601562 l 0,24.582 6.242,1.4844 0,4.375 -20.93,-0.3711 0,-4.0039"
         id="path84"
         style="fill:#231f20;fill-opacity:1;fill-rule:nonzero;stroke:none" /><path
         d="m 234.434,27.1875 c 0,8.0742 -3.664,13.2109 -11.739,13.2109 -6.093,0 -11.894,-4.4023 -13.664,-5.957 l -0.652,5.2266 -12.102,-0.3711 0,-4.0352 6.25,-1.4609 0,-27.16017 -6.25,-1.83594 0,-4.042971 18.34,0 0,4.042971 -4.773,1.83594 0,21.64067 c 0,0 4.414,5.8671 10.636,5.8671 4.786,0 6.622,-2.5546 6.622,-7.6836 l 0,-19.82417 -4.766,-1.83594 0,-4.042971 17.598,0 0,4.042971 -5.5,1.83594 0,20.54687"
         id="path86"
         style="fill:#231f20;fill-opacity:1;fill-rule:nonzero;stroke:none" /><path
         d="m 259.387,39.668 -13.574,-0.3711 0,-4.0352 6.226,-1.4609 0,-27.16017 -6.226,-1.83594 0,-4.042971 19.082,0 0,4.042971 -5.508,1.83594 0,33.02737"
         id="path88"
         style="fill:#231f20;fill-opacity:1;fill-rule:nonzero;stroke:none" /><path
         d="m 255.344,46.6328 c 2.195,0 4.773,1.836 4.773,5.125 0,3.6524 -1.836,5.1367 -4.773,5.1367 -2.563,0 -4.77,-1.8281 -4.77,-5.1367 0,-3.289 1.828,-5.125 4.77,-5.125"
         id="path90"
         style="fill:#231f20;fill-opacity:1;fill-rule:nonzero;stroke:none" /><path
         d="m 292.395,35.2617 5.054,-1.1133 -8.797,-26.77731 -8.718,27.16021 5.125,0.7304 0,4.4063 -16.512,-0.3711 0,-4.0352 3.672,-1.1133 12.051,-33.386681 8.043,0 12.492,33.769581 4.023,0.7304 0,4.4063 -16.433,-0.3711 0,-4.0352"
         id="path92"
         style="fill:#231f20;fill-opacity:1;fill-rule:nonzero;stroke:none" /><path
         d="m 320.852,24.6172 c 0.449,5.5 3.75,10.0586 9.609,10.0586 5.879,0 8.008,-4.5586 8.008,-10.0586 l -17.617,0 z m 25.378,-1.4649 c 0,10.9961 -4.746,17.2461 -15.39,17.2461 -10.645,0 -17.988,-8.8046 -17.988,-20.5468 0,-12.10941 5.878,-19.8242562 17.609,-19.8242562 8.816,0 15.633,6.1054662 15.633,6.1054662 l -2.559,3.8086 c 0,0 -4.988,-4.02344 -12.312,-4.02344 -6.328,0 -10.664,5.11723 -10.664,13.18363 l 25.32,0.1562 c 0,0 0.351,2.0508 0.351,3.8945"
         id="path94"
         style="fill:#231f20;fill-opacity:1;fill-rule:nonzero;stroke:none" /><path
         d="m 365.242,34.3047 -0.664,5.3633 -12.09,-0.3711 0,-4.0352 6.235,-1.4609 0,-27.16017 -6.235,-1.83594 0,-4.042971 20.91,0 0,4.042971 -7.335,1.83594 0,21.79687 c 1.613,2.1289 5.136,5.7109 10.625,5.7109 l 1.117,-5.4882 4.746,0 0.387,10.6367 c 0,0 -2.938,1.1015 -6.61,1.1015 -4.98,0 -9.25,-4.0312 -11.086,-6.0937"
         id="path96"
         style="fill:#231f20;fill-opacity:1;fill-rule:nonzero;stroke:none" /><path
         d="m 395.117,29.9688 c -0.144,3.75 2.793,4.7773 6.16,4.9023 3.293,0.1797 6.321,-0.8594 6.321,-0.8594 l 1.172,-5.7304 4.753,0 0.239,9.9218 c 0,0 -6.758,2.2657 -12.563,2.1953 -7.769,-0.1562 -13.562,-3.8867 -13.418,-11.5898 0.199,-13.2148 20.168,-9.4141 20.461,-17.4688 0.149,-4.41402 -3.672,-5.65621 -8.074,-5.80464 -3.52,-0.14453 -6.445,0.66406 -6.445,0.66406 l -0.801,6.32028 -5.141,0 0.063,-10.87887 c 0,0 6.023,-1.906255 12.261,-1.6132862 8.418,0.3046872 15.618,4.2695362 15.469,12.7148562 -0.215,12.4726 -20.164,9.2305 -20.457,17.2266"
         id="path98"
         style="fill:#231f20;fill-opacity:1;fill-rule:nonzero;stroke:none" /><path
         d="m 427.402,51.7578 c 0,-3.289 1.856,-5.125 4.746,-5.125 2.239,0 4.793,1.836 4.793,5.125 0,3.6524 -1.863,5.1367 -4.793,5.1367 -2.558,0 -4.746,-1.8281 -4.746,-5.1367"
         id="path100"
         style="fill:#231f20;fill-opacity:1;fill-rule:nonzero;stroke:none" /><path
         d="m 436.211,39.668 -13.594,-0.3711 0,-4.0352 6.25,-1.4609 0,-27.16017 -6.25,-1.83594 0,-4.042971 19.102,0 0,4.042971 -5.508,1.83594 0,33.02737"
         id="path102"
         style="fill:#231f20;fill-opacity:1;fill-rule:nonzero;stroke:none" /><path
         d="m 464.824,5.76172 c -2.058,0 -3.679,1.11328 -3.679,4.48048 l 0,23.5586 10.652,0 0,5.4961 -10.652,0 0,10.7031 -7.336,-1.4531 0,-9.25 -7.332,-0.7344 0,-4.7617 7.332,0 0,-23.1172 c 0,-8.23438 4.035,-10.6562562 8.457,-10.6562562 3.652,0 6.972,1.2617162 10.261,3.6718762 l -1.992,3.90625 C 468.621,6.5625 466.582,5.76172 464.824,5.76172"
         id="path104"
         style="fill:#231f20;fill-opacity:1;fill-rule:nonzero;stroke:none" /><path
         d="m 497.473,52.1289 c 0,-2.7734 1.519,-4.375 4.019,-4.375 2.219,0 4.043,1.6016 4.043,4.375 0,2.7813 -1.519,4.4024 -4.043,4.4024 -2.176,0 -4.019,-1.6211 -4.019,-4.4024"
         id="path106"
         style="fill:#231f20;fill-opacity:1;fill-rule:nonzero;stroke:none" /><path
         d="m 500.77,11.7773 c 0,0 -4.383,-5.85933 -9.903,-5.85933 -3.308,0 -5.34,2.19531 -5.34,5.50783 0,4.3945 2.774,6.2305 10.11,6.2305 l 5.133,0 0,-5.879 z m 7.343,17.2344 c 0,8.4375 -5.066,11.3867 -13.57,11.3867 -6.242,0 -14.328,-2.9492 -14.328,-2.9492 l 0.383,-9.1679 4.785,0 0.996,5.5195 c 0,0 3.016,1.0703 7.43,1.0703 4.394,0 6.961,-2.168 6.961,-6.5898 l 0,-5.8516 -5.848,0 c -10.293,0 -16.902,-2.957 -16.902,-11.3945 0,-6.95317 4.05,-11.0078562 11.011,-11.0078562 5.129,0 9.532,3.3906262 12.055,5.8906262 l 1.519,-5.156251 11.372,0.390621 0,4.03125 -5.864,1.45704 0,22.37107"
         id="path108"
         style="fill:#231f20;fill-opacity:1;fill-rule:nonzero;stroke:none" /><path
         d="m 482.441,52.1289 c 0,-2.7734 1.536,-4.375 4.024,-4.375 2.187,0 4.031,1.6016 4.031,4.375 0,2.7813 -1.543,4.4024 -4.031,4.4024 -2.207,0 -4.024,-1.6211 -4.024,-4.4024"
         id="path110"
         style="fill:#231f20;fill-opacity:1;fill-rule:nonzero;stroke:none" /><path
         d="m 536.738,5.76172 c -2.058,0 -3.679,1.11328 -3.679,4.48048 l 0,23.5586 10.664,0 0,5.4961 -10.664,0 0,10.7031 -7.329,-1.4531 0,-9.25 -7.332,-0.7344 0,-4.7617 7.332,0 0,-23.1172 c 0,-8.23438 4.016,-10.6562562 8.45,-10.6562562 3.633,0 6.953,1.2617162 10.254,3.6718762 l -1.985,3.90625 C 540.547,6.5625 538.484,5.76172 536.738,5.76172"
         id="path112"
         style="fill:#231f20;fill-opacity:1;fill-rule:nonzero;stroke:none" /><path
         d="m 588.457,6.64063 -7.703,0 0,17.97657 5.508,0 c 8.074,0 12.847,-2.1875 12.847,-9.5274 0,-5.51167 -3.66,-8.44917 -10.652,-8.44917 z m -7.703,39.62887 8.094,0 c 4.746,0 8.418,-2.5703 8.418,-7.707 0,-5.8594 -4.395,-8.4453 -11.004,-8.4453 l -5.508,0 0,16.1523 z m 14.695,-18.8672 c 6.153,1.543 9.531,5.3008 9.531,11.8946 0,8.8086 -6.601,12.832 -15.792,12.832 l -8.434,0 -13.574,-0.3711 0,-4.0039 6.226,-1.4844 0,-39.62887 -6.226,-1.45704 0,-4.421871 20.925,0 c 12.083,0 18.704,4.421871 18.704,14.687481 0,5.8594 -3.672,10.1953 -11.36,11.9531"
         id="path114"
         style="fill:#231f20;fill-opacity:1;fill-rule:nonzero;stroke:none" /><path
         d="m 637.258,11.7773 c 0,0 -4.399,-5.85933 -9.903,-5.85933 -3.3,0 -5.363,2.19531 -5.363,5.50783 0,4.3945 2.793,6.2305 10.137,6.2305 l 5.129,0 0,-5.879 z m 7.332,17.2344 c 0,8.4375 -5.07,11.3867 -13.582,11.3867 -6.223,0 -14.289,-2.9492 -14.289,-2.9492 l 0.351,-9.1679 4.778,0 1.035,5.5195 c 0,0 2.984,1.0703 7.398,1.0703 4.426,0 6.977,-2.168 6.977,-6.5898 l 0,-5.8516 -5.863,0 c -10.282,0 -16.903,-2.957 -16.903,-11.3945 0,-6.95317 4.043,-11.0078562 11.028,-11.0078562 5.144,0 9.531,3.3906262 12.039,5.8906262 l 1.543,-5.156251 11.367,0.390621 0,4.03125 -5.879,1.45704 0,22.37107"
         id="path116"
         style="fill:#231f20;fill-opacity:1;fill-rule:nonzero;stroke:none" /><path
         d="m 664.109,29.9688 c -0.156,3.75 2.786,4.7773 6.157,4.9023 3.297,0.1797 6.304,-0.8594 6.304,-0.8594 l 1.164,-5.7304 4.786,0 0.214,9.9218 c 0,0 -6.75,2.2657 -12.558,2.1953 -7.754,-0.1562 -13.555,-3.8867 -13.399,-11.5898 0.196,-13.2148 20.164,-9.4141 20.457,-17.4688 0.161,-4.41402 -3.671,-5.65621 -8.086,-5.80464 -3.503,-0.14453 -6.433,0.66406 -6.433,0.66406 l -0.813,6.32028 -5.125,0 0.059,-10.87887 c 0,0 6.008,-1.906255 12.246,-1.6132862 8.445,0.3046872 15.645,4.2695362 15.488,12.7148562 -0.222,12.4726 -20.175,9.2305 -20.461,17.2266"
         id="path118"
         style="fill:#231f20;fill-opacity:1;fill-rule:nonzero;stroke:none" /><path
         d="m 699.602,24.6172 c 0.449,5.5 3.757,10.0586 9.617,10.0586 5.879,0 8.015,-4.5586 8.015,-10.0586 l -17.632,0 z m 25.378,-1.4649 c 0,10.9961 -4.753,17.2461 -15.39,17.2461 -10.637,0 -17.988,-8.8046 -17.988,-20.5468 0,-12.10941 5.871,-19.8242562 17.617,-19.8242562 8.808,0 15.617,6.1054662 15.617,6.1054662 l -2.563,3.8086 c 0,0 -4.976,-4.02344 -12.312,-4.02344 -6.309,0 -10.652,5.11723 -10.652,13.18363 l 25.32,0.1562 c 0,0 0.351,2.0508 0.351,3.8945"
         id="path120"
         style="fill:#231f20;fill-opacity:1;fill-rule:nonzero;stroke:none" /><path
         d="m 743.848,57.2578 -13.719,-0.3633 0,-4.0351 6.25,-1.4649 0,-44.75387 -6.25,-1.83594 0,-4.042971 21.07,0 0,4.042971 -7.351,1.83594 0,50.61717"
         id="path122"
         style="fill:#231f20;fill-opacity:1;fill-rule:nonzero;stroke:none" /><path
         d="m 780.996,329.512 c 6.641,0 12.07,5.398 12.07,12.058 0,6.653 -5.429,12.043 -12.07,12.043 l -29.519,0 c -6.664,0 -12.043,-5.39 -12.043,-12.043 0,-6.66 5.379,-12.058 12.043,-12.058 l 29.519,0"
         id="path124"
         style="fill:#231f20;fill-opacity:1;fill-rule:nonzero;stroke:none" /><path
         d="m 917.219,353.613 c -6.66,0 -12.063,-5.39 -12.063,-12.043 0,-6.66 5.403,-12.058 12.063,-12.058 l 29.519,0 c 6.66,0 12.051,5.398 12.051,12.058 0,6.653 -5.391,12.043 -12.051,12.043 l -29.519,0"
         id="path126"
         style="fill:#231f20;fill-opacity:1;fill-rule:nonzero;stroke:none" /><path
         d="m 849.121,397.645 c 6.649,0 12.051,5.39 12.051,12.031 l 0,29.523 c 0,6.649 -5.402,12.051 -12.051,12.051 -6.66,0 -12.051,-5.402 -12.051,-12.051 l 0,-29.523 c 0,-6.641 5.391,-12.031 12.051,-12.031"
         id="path128"
         style="fill:#231f20;fill-opacity:1;fill-rule:nonzero;stroke:none" /><path
         d="m 849.121,285.516 c -6.66,0 -12.051,-5.399 -12.051,-12.047 l 0,-29.535 c 0,-6.661 5.391,-12.032 12.051,-12.032 6.649,0 12.051,5.371 12.051,12.032 l 0,29.535 c 0,6.648 -5.402,12.047 -12.051,12.047"
         id="path130"
         style="fill:#231f20;fill-opacity:1;fill-rule:nonzero;stroke:none" /><path
         d="m 963.777,439.199 -17.019,17.031 -97.637,-97.628 -97.644,97.636 -17.024,-17.039 97.637,-97.629 -97.637,-97.636 17.024,-17.032 97.632,97.637 97.649,-97.652 17.019,17.039 -97.644,97.644 97.644,97.629"
         id="path132"
         style="fill:#231f20;fill-opacity:1;fill-rule:nonzero;stroke:none" /></g></g></svg>